# xmcd
#
# Track frame offsets:
#	150
#	14885
#	27860
#	40757
#	56810
#	70982
#	83060
#	94985
#	108032
#	119845
#	133835
#	148177
#	160680
#	173960
#	187610
#	201397
#	213782
#	227137
#	240340
#	255187
#	268170
#	280865
#
# Disc length: 3929
#
# Revision: 12
# Processed by: cddbd v1.5.1PL0 Copyright (c) Steve Scherf et al.
# Submitted via: ExactAudioCopy v0.95a5
# Normalized: r11:DSETVAR1
#
DISCID=3c0f5716
DTITLE=Various Artist - Booze and the Blues
DYEAR=1996
DGENRE=Blues
TTITLE0=State Street Swingers - You Drink Too Much
TTITLE1=Charley Jordan - Cherry Wine Woman
TTITLE2=Memphis Minnie - Drunken Barrel House Blues
TTITLE3=Mississippi Sheiks - Bootlegger's Blues
TTITLE4=Robert Hicks as "Barbeque Bob" - Me and My Whiskey
TTITLE5=(Kid) Prince Moore - Bug Juice Blues
TTITLE6=Charlie Spand - Rock and Rye
TTITLE7=Memphis Jug Band - Rukus Juice and Chittlin'
TTITLE8=Merline Johnson as the "Yas Yas Girl" - Bad Whiskey Blues
TTITLE9=Amos Easton as "Bomble Bee Slim" - I Keep On Drinking (To Drive My Blues Away) - Part 1
TTITLE10=Amos Easton as "Bomble Bee Slim" - I Keep On Drinking (To Drive My Blues Away) - Part 2
TTITLE11=Little Bill Gaither - Moonshine By the Keg
TTITLE12=Lucille Bogan as "Bessie Jackson" - Drinking Blues
TTITLE13=Peetie Wheatstraw - More Good Whiskey Blues
TTITLE14=Joshua White as "Pinewood Tom" - Pigmeat and Whiskey Blues
TTITLE15=Casey Bill Weldon - Give Me Another Shot
TTITLE16=Rosetta Howard - When I Been Drinking
TTITLE17=Lewis Black - Corn Liquor Blues
TTITLE18=Sloppy Henry - Canned Heat Blues
TTITLE19=Big Bill Broonzy - When I Been Drinking
TTITLE20=Jack Newman - Blackberry Wine
TTITLE21=Rev. W. M. Mosley - Drinking Shine
EXTD=LABEL =Sony Music Entertainment Inc.\nID =CK67002\nUPC =07464-67002-28\nCOPYRIGHT =1996
EXTT0=
EXTT1=
EXTT2=
EXTT3=
EXTT4=
EXTT5=
EXTT6=
EXTT7=
EXTT8=
EXTT9=
EXTT10=
EXTT11=
EXTT12=
EXTT13=
EXTT14=
EXTT15=
EXTT16=
EXTT17=
EXTT18=
EXTT19=
EXTT20=
EXTT21=
PLAYORDER=
